<svg xmlns="http://www.w3.org/2000/svg" viewBox="0 0 1476.86 1609.44"><defs><style>.cls-1,.cls-6{fill:#303030;}.cls-2{fill:#3c873a;}.cls-3{fill:#68a063;}.cls-4{fill:#b3b3b3;}.cls-5{fill:#4d4d4d;}.cls-6{font-size:1238.62px;font-family:Impact;}</style></defs><g id="Layer_1" data-name="Layer 1"><polygon class="cls-1" points="1107.65 73.77 369.21 73.77 0 713.27 369.21 1352.77 1107.65 1352.77 1476.86 713.27 1107.65 73.77"/></g><g id="Layer_3" data-name="Layer 3"><polygon class="cls-2" points="1451.7 522.15 929.55 0 216.28 191.12 25.16 904.39 547.31 1426.54 1260.58 1235.42 1451.7 522.15"/></g><g id="Layer_4" data-name="Layer 4"><polygon class="cls-3" points="1214.76 149.01 487.93 18.63 11.6 582.89 262.11 1277.53 988.93 1407.91 1465.26 843.65 1214.76 149.01"/></g><g id="Layer_11" data-name="Layer 11"><path class="cls-4" d="M524,1564l727,131-136.34-50.9a846.75,846.75,0,0,0-182.44-45.82l-266.92-36.2a183.57,183.57,0,0,0-30.73-1.59L524,1564" transform="translate(-261.57 -286.73)"/></g><g id="Layer_9" data-name="Layer 9"><path class="cls-4" d="M749,305c76.18,57.74,297.71,101.33,382.47,116.33a439.8,439.8,0,0,0,63.94,6.55L1476,436Z" transform="translate(-261.57 -286.73)"/></g><g id="Layer_6" data-name="Layer 6"><path class="cls-5" d="M627.05,684c-4,7.15-6.08,20.8-6,29h0c-.09.83-.08,27.17,0,28l4.52,38.85a71.61,71.61,0,0,0,1.7,10.18l3,12.43A12.57,12.57,0,0,1,618,818h-26.3a12.58,12.58,0,0,1-12.17-9.39l-24.82-94.88a12.5,12.5,0,0,1-.2-5.51l11.11-59a12.6,12.6,0,0,1,8.38-9.6l62.25-20.75a12.66,12.66,0,0,1,5.6-.54l38.4,5a12.62,12.62,0,0,1,7.87,4.23l20.93,24.15a12.57,12.57,0,0,1,2.68,5.11L715,669.63a12.58,12.58,0,0,1-16.6,14.9h0a8.17,8.17,0,0,1-3.43-2.78c-9.41-14.78-44.77-43.2-68,2.25" transform="translate(-261.57 -286.73)"/></g><g id="Layer_7" data-name="Layer 7"><path class="cls-5" d="M1369,687l-20.72,2-2,.24c-25.13,3.28-44.47,23.87-47.17,49.06l-2.73,25.46c-.23,2.14-.38,4.29-.46,6.43L1291,904l-53-197,8-68,46-25,93,21-11,51-5,1" transform="translate(-261.57 -286.73)"/></g><g id="Layer_8" data-name="Layer 8"><path class="cls-5" d="M1370,1057l-.65.08c-34.61,4.25-56.23-16.78-68.35,15.92l-9,102-80-61v-80l79-48,71,8,8,63" transform="translate(-261.57 -286.73)"/></g><g id="Layer_2" data-name="Layer 2"><text class="cls-6" transform="translate(84.65 1199.99)">SR</text><path class="cls-1" d="M1369,1487c18,26,236,0,236,0" transform="translate(-261.57 -286.73)"/></g><g id="Layer_5" data-name="Layer 5"><path class="cls-1" d="M385,1136c152.23-149.25,236,0,236,0" transform="translate(-261.57 -286.73)"/><path class="cls-1" d="M-385,980" transform="translate(-261.57 -286.73)"/><path class="cls-1" d="M701,803c81,138,236,0,236,0" transform="translate(-261.57 -286.73)"/><path class="cls-1" d="M1038,1486c80,29,254,0,254,0" transform="translate(-261.57 -286.73)"/></g></svg>